<svg width="16" height="17" viewBox="0 0 16 17" fill="none" xmlns="http://www.w3.org/2000/svg">
<path d="M12.3538 4.64625L9.85375 2.14625C9.80728 2.09983 9.75212 2.06303 9.69143 2.03793C9.63073 2.01284 9.56568 1.99995 9.5 2H4.5C4.23478 2 3.98043 2.10536 3.79289 2.29289C3.60536 2.48043 3.5 2.73478 3.5 3V4H2.5C2.23478 4 1.98043 4.10536 1.79289 4.29289C1.60536 4.48043 1.5 4.73478 1.5 5V14C1.5 14.2652 1.60536 14.5196 1.79289 14.7071C1.98043 14.8946 2.23478 15 2.5 15H9.5C9.76522 15 10.0196 14.8946 10.2071 14.7071C10.3946 14.5196 10.5 14.2652 10.5 14V13H11.5C11.7652 13 12.0196 12.8946 12.2071 12.7071C12.3946 12.5196 12.5 12.2652 12.5 12V5C12.5001 4.93432 12.4872 4.86927 12.4621 4.80858C12.437 4.74788 12.4002 4.69272 12.3538 4.64625ZM9.5 14H2.5V5H7.29313L9.5 7.20687V12.49C9.5 12.4937 9.5 12.4969 9.5 12.5C9.5 12.5031 9.5 12.5063 9.5 12.51V14ZM11.5 12H10.5V7C10.5001 6.93432 10.4872 6.86927 10.4621 6.80858C10.437 6.74788 10.4002 6.69272 10.3538 6.64625L7.85375 4.14625C7.80728 4.09983 7.75212 4.06303 7.69143 4.03793C7.63073 4.01284 7.56568 3.99995 7.5 4H4.5V3H9.29313L11.5 5.20688V12ZM8 10C8 10.1326 7.94732 10.2598 7.85355 10.3536C7.75979 10.4473 7.63261 10.5 7.5 10.5H4.5C4.36739 10.5 4.24021 10.4473 4.14645 10.3536C4.05268 10.2598 4 10.1326 4 10C4 9.86739 4.05268 9.74021 4.14645 9.64645C4.24021 9.55268 4.36739 9.5 4.5 9.5H7.5C7.63261 9.5 7.75979 9.55268 7.85355 9.64645C7.94732 9.74021 8 9.86739 8 10ZM8 12C8 12.1326 7.94732 12.2598 7.85355 12.3536C7.75979 12.4473 7.63261 12.5 7.5 12.5H4.5C4.36739 12.5 4.24021 12.4473 4.14645 12.3536C4.05268 12.2598 4 12.1326 4 12C4 11.8674 4.05268 11.7402 4.14645 11.6464C4.24021 11.5527 4.36739 11.5 4.5 11.5H7.5C7.63261 11.5 7.75979 11.5527 7.85355 11.6464C7.94732 11.7402 8 11.8674 8 12Z" fill="white"/>
</svg>
